<svg xmlns="http://www.w3.org/2000/svg" xmlns:xlink="http://www.w3.org/1999/xlink" width="1024" zoomAndPan="magnify" viewBox="0 0 768 767.999994" height="1024" preserveAspectRatio="xMidYMid meet" version="1.0"><defs><g/><clipPath id="7f7137a359"><path d="M 71.535156 279.054688 L 696.285156 279.054688 L 696.285156 385.554688 L 71.535156 385.554688 Z M 71.535156 279.054688 " clip-rule="nonzero"/></clipPath></defs><g clip-path="url(#7f7137a359)"><path fill="#f8f7f2" d="M 101.664062 337.414062 C 106.132812 334.304688 108.464844 331.386719 108.464844 328.277344 C 108.464844 324.585938 106.132812 321.476562 103.21875 319.144531 C 101.664062 317.585938 95.636719 315.449219 99.523438 309.421875 C 132.570312 317.78125 237.535156 279.296875 328.890625 279.296875 C 386.234375 279.296875 441.242188 289.015625 496.445312 311.757812 C 531.238281 311.757812 665.554688 326.140625 696.460938 378.234375 C 694.90625 379.789062 692.765625 383.480469 691.988281 385.8125 L 684.410156 385.8125 C 685.1875 383.480469 686.742188 380.566406 688.101562 378.234375 C 668.46875 348.105469 528.128906 323.808594 489.640625 323.808594 C 434.4375 298.925781 378.652344 291.347656 328.890625 291.347656 C 232.285156 291.347656 164.445312 323.03125 111.578125 319.335938 C 111.578125 323.03125 117.601562 326.917969 117.601562 332.945312 C 117.601562 338.191406 115.269531 343.441406 111.578125 348.105469 C 99.523438 347.910156 81.253906 359.378906 81.253906 385.621094 L 71.535156 385.621094 C 71.535156 372.792969 71.535156 351.796875 101.664062 337.414062 Z M 101.664062 337.414062 " fill-opacity="1" fill-rule="nonzero"/></g><g fill="#f8f7f2" fill-opacity="1"><g transform="translate(124.631989, 477.057109)"><g><path d="M 64.707031 1.90625 C 72.332031 1.90625 80.433594 -0.359375 85.917969 -3.933594 L 84.367188 -17.398438 C 83.054688 -16.800781 81.386719 -16.207031 79.839844 -16.207031 C 77.695312 -16.207031 76.621094 -17.875 76.265625 -20.136719 L 75.789062 -25.023438 C 75.3125 -29.671875 74 -32.652344 70.78125 -33.960938 L 70.78125 -34.082031 C 83.292969 -39.085938 90.085938 -49.09375 90.085938 -61.25 C 90.085938 -77.097656 78.289062 -85.796875 56.839844 -85.796875 L 14.179688 -85.796875 L 0.597656 0 L 31.578125 0 L 36.105469 -28.597656 L 40.277344 -28.597656 C 43.972656 -28.597656 45.28125 -25.621094 45.757812 -22.164062 L 46.59375 -14.300781 C 47.664062 -4.289062 54.457031 1.90625 64.707031 1.90625 Z M 39.085938 -47.664062 L 41.707031 -64.347656 L 50.882812 -64.347656 C 56.007812 -64.347656 58.867188 -61.84375 58.867188 -57.4375 C 58.867188 -51.121094 55.054688 -47.664062 48.261719 -47.664062 Z M 39.085938 -47.664062 "/></g></g></g><g fill="#f8f7f2" fill-opacity="1"><g transform="translate(215.789323, 477.057109)"><g><path d="M 0.597656 0 L 61.84375 0 L 65.539062 -23.832031 L 34.082031 -23.832031 L 35.628906 -33.367188 L 61.128906 -33.367188 L 64.347656 -53.625 L 38.847656 -53.625 L 40.15625 -61.964844 L 70.425781 -61.964844 L 74.238281 -85.796875 L 14.179688 -85.796875 Z M 0.597656 0 "/></g></g></g><g fill="#f8f7f2" fill-opacity="1"><g transform="translate(284.782893, 477.057109)"><g><path d="M 0.597656 0 L 31.460938 0 L 35.273438 -24.070312 L 49.09375 -24.070312 C 74.835938 -24.070312 89.015625 -36.941406 89.015625 -58.984375 C 89.015625 -76.503906 77.695312 -85.796875 57.199219 -85.796875 L 14.179688 -85.796875 Z M 38.847656 -45.519531 L 41.585938 -64.347656 L 48.140625 -64.347656 C 54.339844 -64.347656 57.792969 -61.605469 57.792969 -56.484375 C 57.792969 -49.453125 53.265625 -45.519531 45.164062 -45.519531 Z M 38.847656 -45.519531 "/></g></g></g><g fill="#f8f7f2" fill-opacity="1"><g transform="translate(371.769618, 477.057109)"><g><path d="M 47.1875 2.859375 C 78.289062 2.859375 101.167969 -20.734375 101.167969 -51.359375 C 101.167969 -74.238281 84.964844 -88.65625 58.03125 -88.65625 C 26.8125 -88.65625 3.933594 -65.183594 3.933594 -34.4375 C 3.933594 -11.558594 20.257812 2.859375 47.1875 2.859375 Z M 50.40625 -23.355469 C 40.632812 -23.355469 35.273438 -29.074219 35.273438 -38.488281 C 35.273438 -50.882812 42.304688 -62.441406 54.578125 -62.441406 C 64.46875 -62.441406 69.828125 -56.722656 69.828125 -47.308594 C 69.828125 -35.035156 62.800781 -23.355469 50.40625 -23.355469 Z M 50.40625 -23.355469 "/></g></g></g><g fill="#f8f7f2" fill-opacity="1"><g transform="translate(473.055536, 477.057109)"><g><path d="M 64.707031 1.90625 C 72.332031 1.90625 80.433594 -0.359375 85.917969 -3.933594 L 84.367188 -17.398438 C 83.054688 -16.800781 81.386719 -16.207031 79.839844 -16.207031 C 77.695312 -16.207031 76.621094 -17.875 76.265625 -20.136719 L 75.789062 -25.023438 C 75.3125 -29.671875 74 -32.652344 70.78125 -33.960938 L 70.78125 -34.082031 C 83.292969 -39.085938 90.085938 -49.09375 90.085938 -61.25 C 90.085938 -77.097656 78.289062 -85.796875 56.839844 -85.796875 L 14.179688 -85.796875 L 0.597656 0 L 31.578125 0 L 36.105469 -28.597656 L 40.277344 -28.597656 C 43.972656 -28.597656 45.28125 -25.621094 45.757812 -22.164062 L 46.59375 -14.300781 C 47.664062 -4.289062 54.457031 1.90625 64.707031 1.90625 Z M 39.085938 -47.664062 L 41.707031 -64.347656 L 50.882812 -64.347656 C 56.007812 -64.347656 58.867188 -61.84375 58.867188 -57.4375 C 58.867188 -51.121094 55.054688 -47.664062 48.261719 -47.664062 Z M 39.085938 -47.664062 "/></g></g></g><g fill="#f8f7f2" fill-opacity="1"><g transform="translate(564.212846, 477.057109)"><g><path d="M 19.183594 0 L 50.167969 0 L 59.582031 -59.582031 L 81.269531 -59.582031 L 85.441406 -85.796875 L 11.082031 -85.796875 L 6.910156 -59.582031 L 28.597656 -59.582031 Z M 19.183594 0 "/></g></g></g><g fill="#f8f7f2" fill-opacity="1"><g transform="translate(233.71358, 565.61567)"><g><path d="M -0.484375 0 L 12.859375 -24.453125 L 15.96875 -24.453125 L 20.609375 0 L 17.578125 0 L 16.421875 -6.28125 L 6.015625 -6.28125 L 2.65625 0 Z M 7.234375 -8.59375 L 16 -8.59375 L 13.765625 -20.96875 Z M 7.234375 -8.59375 "/></g></g></g><g fill="#f8f7f2" fill-opacity="1"><g transform="translate(270.791507, 565.61567)"><g><path d="M 11.84375 0.421875 C 9.769531 0.421875 8.003906 0.015625 6.546875 -0.796875 C 5.085938 -1.617188 3.972656 -2.757812 3.203125 -4.21875 C 2.441406 -5.6875 2.0625 -7.398438 2.0625 -9.359375 C 2.0625 -11.546875 2.414062 -13.582031 3.125 -15.46875 C 3.832031 -17.363281 4.828125 -19.015625 6.109375 -20.421875 C 7.390625 -21.828125 8.882812 -22.921875 10.59375 -23.703125 C 12.3125 -24.484375 14.171875 -24.875 16.171875 -24.875 C 18.972656 -24.875 21.140625 -24.203125 22.671875 -22.859375 C 24.210938 -21.523438 25.015625 -19.660156 25.078125 -17.265625 L 21.765625 -17.265625 C 21.722656 -18.816406 21.195312 -20.039062 20.1875 -20.9375 C 19.1875 -21.84375 17.707031 -22.296875 15.75 -22.296875 C 14.238281 -22.296875 12.835938 -21.972656 11.546875 -21.328125 C 10.253906 -20.691406 9.128906 -19.796875 8.171875 -18.640625 C 7.222656 -17.484375 6.476562 -16.132812 5.9375 -14.59375 C 5.40625 -13.0625 5.140625 -11.398438 5.140625 -9.609375 C 5.140625 -7.253906 5.765625 -5.425781 7.015625 -4.125 C 8.273438 -2.820312 10.023438 -2.171875 12.265625 -2.171875 C 14.222656 -2.171875 15.847656 -2.613281 17.140625 -3.5 C 18.429688 -4.382812 19.378906 -5.582031 19.984375 -7.09375 L 23.296875 -7.09375 C 22.390625 -4.71875 20.945312 -2.867188 18.96875 -1.546875 C 16.988281 -0.234375 14.613281 0.421875 11.84375 0.421875 Z M 11.84375 0.421875 "/></g></g></g><g fill="#f8f7f2" fill-opacity="1"><g transform="translate(309.896169, 565.61567)"><g><path d="M 11.84375 0.421875 C 9.769531 0.421875 8.003906 0.015625 6.546875 -0.796875 C 5.085938 -1.617188 3.972656 -2.757812 3.203125 -4.21875 C 2.441406 -5.6875 2.0625 -7.398438 2.0625 -9.359375 C 2.0625 -11.546875 2.414062 -13.582031 3.125 -15.46875 C 3.832031 -17.363281 4.828125 -19.015625 6.109375 -20.421875 C 7.390625 -21.828125 8.882812 -22.921875 10.59375 -23.703125 C 12.3125 -24.484375 14.171875 -24.875 16.171875 -24.875 C 18.972656 -24.875 21.140625 -24.203125 22.671875 -22.859375 C 24.210938 -21.523438 25.015625 -19.660156 25.078125 -17.265625 L 21.765625 -17.265625 C 21.722656 -18.816406 21.195312 -20.039062 20.1875 -20.9375 C 19.1875 -21.84375 17.707031 -22.296875 15.75 -22.296875 C 14.238281 -22.296875 12.835938 -21.972656 11.546875 -21.328125 C 10.253906 -20.691406 9.128906 -19.796875 8.171875 -18.640625 C 7.222656 -17.484375 6.476562 -16.132812 5.9375 -14.59375 C 5.40625 -13.0625 5.140625 -11.398438 5.140625 -9.609375 C 5.140625 -7.253906 5.765625 -5.425781 7.015625 -4.125 C 8.273438 -2.820312 10.023438 -2.171875 12.265625 -2.171875 C 14.222656 -2.171875 15.847656 -2.613281 17.140625 -3.5 C 18.429688 -4.382812 19.378906 -5.582031 19.984375 -7.09375 L 23.296875 -7.09375 C 22.390625 -4.71875 20.945312 -2.867188 18.96875 -1.546875 C 16.988281 -0.234375 14.613281 0.421875 11.84375 0.421875 Z M 11.84375 0.421875 "/></g></g></g><g fill="#f8f7f2" fill-opacity="1"><g transform="translate(349.000824, 565.61567)"><g><path d="M 1.078125 0 L 5.375 -24.453125 L 8.3125 -24.453125 L 4.015625 0 Z M 1.078125 0 "/></g></g></g><g fill="#f8f7f2" fill-opacity="1"><g transform="translate(371.017939, 565.61567)"><g><path d="M 1.078125 0 L 5.375 -24.453125 L 12.890625 -24.453125 C 16.566406 -24.453125 19.273438 -23.597656 21.015625 -21.890625 C 22.753906 -20.179688 23.625 -17.738281 23.625 -14.5625 C 23.625 -11.695312 23.003906 -9.171875 21.765625 -6.984375 C 20.535156 -4.796875 18.796875 -3.082031 16.546875 -1.84375 C 14.296875 -0.613281 11.644531 0 8.59375 0 Z M 4.4375 -2.453125 L 8.984375 -2.453125 C 11.398438 -2.453125 13.472656 -2.9375 15.203125 -3.90625 C 16.941406 -4.882812 18.269531 -6.265625 19.1875 -8.046875 C 20.113281 -9.828125 20.578125 -11.929688 20.578125 -14.359375 C 20.578125 -16.847656 19.941406 -18.742188 18.671875 -20.046875 C 17.398438 -21.359375 15.3125 -22.015625 12.40625 -22.015625 L 7.890625 -22.015625 Z M 4.4375 -2.453125 "/></g></g></g><g fill="#f8f7f2" fill-opacity="1"><g transform="translate(409.388779, 565.61567)"><g><path d="M 1.078125 0 L 5.375 -24.453125 L 19.53125 -24.453125 L 19.078125 -22.109375 L 7.890625 -22.109375 L 6.390625 -13.484375 L 16.53125 -13.484375 L 16.140625 -11.1875 L 5.96875 -11.1875 L 4.4375 -2.34375 L 15.609375 -2.34375 L 15.203125 0 Z M 1.078125 0 "/></g></g></g><g fill="#f8f7f2" fill-opacity="1"><g transform="translate(442.203549, 565.61567)"><g><path d="M 1.078125 0 L 5.375 -24.453125 L 8.28125 -24.453125 L 17.890625 -4.640625 L 21.34375 -24.453125 L 24.28125 -24.453125 L 19.984375 0 L 17.046875 0 L 7.515625 -19.8125 L 4.015625 0 Z M 1.078125 0 "/></g></g></g><g fill="#f8f7f2" fill-opacity="1"><g transform="translate(480.190013, 565.61567)"><g><path d="M 6.78125 0 L 10.65625 -22.109375 L 3.390625 -22.109375 L 3.8125 -24.453125 L 21.3125 -24.453125 L 20.890625 -22.109375 L 13.59375 -22.109375 L 9.71875 0 Z M 6.78125 0 "/></g></g></g><g fill="#f8f7f2" fill-opacity="1"><g transform="translate(513.59883, 565.61567)"><g><path d="M 9.390625 0.421875 C 7.785156 0.421875 6.382812 0.160156 5.1875 -0.359375 C 3.988281 -0.890625 3.050781 -1.628906 2.375 -2.578125 C 1.695312 -3.535156 1.359375 -4.65625 1.359375 -5.9375 C 1.359375 -6.144531 1.367188 -6.367188 1.390625 -6.609375 C 1.421875 -6.859375 1.457031 -7.101562 1.5 -7.34375 L 4.578125 -7.34375 C 4.503906 -7.007812 4.46875 -6.691406 4.46875 -6.390625 C 4.46875 -5.128906 4.9375 -4.09375 5.875 -3.28125 C 6.820312 -2.46875 8.101562 -2.0625 9.71875 -2.0625 C 11.570312 -2.0625 12.988281 -2.515625 13.96875 -3.421875 C 14.945312 -4.328125 15.4375 -5.523438 15.4375 -7.015625 C 15.4375 -7.785156 15.242188 -8.421875 14.859375 -8.921875 C 14.484375 -9.421875 13.96875 -9.835938 13.3125 -10.171875 C 12.65625 -10.515625 11.925781 -10.820312 11.125 -11.09375 C 10.320312 -11.363281 9.515625 -11.648438 8.703125 -11.953125 C 7.160156 -12.503906 6.007812 -13.265625 5.25 -14.234375 C 4.5 -15.203125 4.125 -16.300781 4.125 -17.53125 C 4.125 -19 4.484375 -20.28125 5.203125 -21.375 C 5.921875 -22.476562 6.929688 -23.335938 8.234375 -23.953125 C 9.546875 -24.566406 11.0625 -24.875 12.78125 -24.875 C 14.15625 -24.875 15.375 -24.632812 16.4375 -24.15625 C 17.5 -23.675781 18.320312 -23.003906 18.90625 -22.140625 C 19.488281 -21.285156 19.78125 -20.300781 19.78125 -19.1875 C 19.78125 -18.832031 19.742188 -18.46875 19.671875 -18.09375 L 16.625 -18.09375 C 16.625 -18.207031 16.628906 -18.316406 16.640625 -18.421875 C 16.660156 -18.535156 16.671875 -18.648438 16.671875 -18.765625 C 16.671875 -19.671875 16.3125 -20.492188 15.59375 -21.234375 C 14.882812 -21.984375 13.8125 -22.359375 12.375 -22.359375 C 10.832031 -22.359375 9.585938 -21.941406 8.640625 -21.109375 C 7.703125 -20.285156 7.234375 -19.25 7.234375 -18 C 7.234375 -17.113281 7.515625 -16.40625 8.078125 -15.875 C 8.648438 -15.351562 9.414062 -14.914062 10.375 -14.5625 C 11.332031 -14.21875 12.378906 -13.835938 13.515625 -13.421875 C 14.941406 -12.878906 16.144531 -12.125 17.125 -11.15625 C 18.101562 -10.195312 18.59375 -8.9375 18.59375 -7.375 C 18.59375 -5.8125 18.207031 -4.445312 17.4375 -3.28125 C 16.664062 -2.113281 15.59375 -1.203125 14.21875 -0.546875 C 12.84375 0.0976562 11.234375 0.421875 9.390625 0.421875 Z M 9.390625 0.421875 "/></g></g></g></svg>